Coordinates
version=1
nRows=60
nColumns=12
inDegrees=yes

Units are S.I. units (second, meters, Newtons, ...)
Angles are in degrees

endheader
time	SC_y	SC_z	SC_x	AC_y	AC_z	AC_x	GH_y	GH_z	GH_yy	EL_x	PS_y
       0.0               -44.4          8.497           58.9          42.53         -12.05          1.649          17.37          27.39          128.6          70.19          21.34
   0.01986               -44.4          8.497          58.89          42.54         -12.05          1.646          17.36          27.39          128.6          70.19          21.35
   0.03973               -44.4          8.497          58.89          42.54         -12.04          1.642          17.34          27.38          128.6           70.2          21.35
   0.05959               -44.4          8.498          58.88          42.54         -12.04          1.639          17.32          27.38          128.6           70.2          21.35
   0.07946               -44.4          8.498          58.87          42.54         -12.04          1.635           17.3          27.37          128.5           70.2          21.35
   0.09932               -44.4          8.498          58.87          42.55         -12.03          1.631          17.28          27.36          128.5           70.2          21.36
    0.1192               -44.4          8.498          58.86          42.55         -12.03          1.627          17.25          27.36          128.5           70.2          21.36
     0.139               -44.4          8.499          58.85          42.56         -12.02          1.622          17.23          27.35          128.4          70.21          21.36
    0.1589               -44.4          8.499          58.84          42.56         -12.02          1.617           17.2          27.34          128.4          70.21          21.37
    0.1788               -44.4          8.499          58.83          42.56         -12.01          1.612          17.17          27.34          128.4          70.21          21.37
    0.1986               -44.4            8.5          58.83          42.57         -12.01          1.606          17.14          27.33          128.3          70.21          21.37
    0.2185               -44.4            8.5          58.81          42.57          -12.0            1.6          17.11          27.32          128.3          70.22          21.38
    0.2384               -44.4          8.501           58.8          42.58          -12.0          1.594          17.07          27.31          128.2          70.22          21.38
    0.2582               -44.4          8.501          58.79          42.58         -11.99          1.587          17.03           27.3          128.2          70.23          21.39
    0.2781               -44.4          8.501          58.78          42.59         -11.98          1.579          16.99          27.29          128.1          70.23          21.39
     0.298               -44.4          8.502          58.76           42.6         -11.97           1.57          16.94          27.27          128.1          70.23           21.4
    0.3178               -44.4          8.503          58.75           42.6         -11.97          1.561          16.89          27.26          128.0          70.24           21.4
    0.3377               -44.4          8.503          58.73          42.61         -11.96          1.552          16.84          27.24          128.0          70.24          21.41
    0.3576               -44.4          8.504          58.71          42.62         -11.95          1.541          16.78          27.23          127.9          70.25          21.42
    0.3774               -44.4          8.505          58.69          42.63         -11.94          1.529          16.71          27.21          127.8          70.25          21.43
    0.3973               -44.4          8.506          58.67          42.64         -11.92          1.516          16.64          27.19          127.7          70.26          21.44
    0.4171               -44.4          8.507          58.65          42.65         -11.91          1.502          16.56          27.17          127.6          70.27          21.45
     0.437               -44.4          8.508          58.62          42.66          -11.9          1.486          16.47          27.15          127.5          70.28          21.46
    0.4569               -44.4          8.509          58.59          42.68         -11.88          1.469          16.38          27.12          127.4          70.29          21.47
    0.4767               -44.4           8.51          58.56          42.69         -11.86          1.449          16.27          27.09          127.3           70.3          21.48
    0.4966               -44.4          8.511          58.52          42.71         -11.84          1.427          16.15          27.06          127.1          70.31           21.5
    0.5165               -44.4          8.513          58.48          42.73         -11.82          1.403          16.02          27.02          126.9          70.32          21.51
    0.5363               -44.4          8.515          58.44          42.75         -11.79          1.376          15.86          26.98          126.8          70.33          21.53
    0.5562               -44.4          8.517          58.38          42.78         -11.76          1.345          15.69          26.93          126.5          70.35          21.55
    0.5761               -44.4          8.519          58.33          42.81         -11.73           1.31           15.5          26.88          126.3          70.37          21.58
    0.5959               -44.4          8.522          58.26          42.84         -11.69           1.27          15.28          26.82          126.0          70.39           21.6
    0.6158              -44.41          8.525          58.18          42.87         -11.65          1.224          15.03          26.75          125.7          70.41          21.63
    0.6356              -44.41          8.528          58.09          42.92          -11.6          1.171          14.73          26.67          125.4          70.44          21.67
    0.6555              -44.41          8.532          57.99          42.97         -11.54           1.11          14.39          26.58          124.9          70.47          21.71
    0.6754              -44.41          8.537          57.87          43.02         -11.48          1.038          13.99          26.47          124.4          70.51          21.76
    0.6952              -44.41          8.543          57.72          43.09          -11.4          0.953          13.52          26.34          123.9          70.55          21.82
    0.7151              -44.41          8.549          57.55          43.17          -11.3         0.8522          12.97          26.19          123.2          70.61          21.89
     0.735              -44.42          8.557          57.35          43.27         -11.19         0.7313           12.3          26.01          122.3          70.67          21.97
    0.7548              -44.42          8.567           57.1          43.39         -11.05         0.5851          11.49          25.79          121.3          70.74          22.07
    0.7747              -44.42          8.579           56.8          43.53         -10.88         0.4065           10.5          25.52          120.1          70.84          22.19
    0.7946              -44.43          8.593          56.43          43.71         -10.68          0.186           9.28          25.19          118.6          70.95          22.34
    0.8144              -44.44          8.611          55.97          43.93         -10.42       -0.08887          7.759          24.78          116.7          71.09          22.53
    0.8343              -44.44          8.634          55.38          44.21         -10.09        -0.4352          5.842          24.26          114.4          71.27          22.77
    0.8542              -44.46          8.663          54.64          44.56         -9.681        -0.8754          3.406           23.6          111.4           71.5          23.07
     0.874              -44.47          8.701          53.69          45.01         -9.152         -1.439         0.2882          22.75          107.5          71.79          23.45
    0.8939              -44.49          8.748          52.47          45.59         -8.474         -2.162         -3.713          21.66          102.6          72.17          23.94
    0.9137              -44.51          8.809          50.91          46.33         -7.607         -3.086         -8.824          20.27          96.23          72.65          24.57
    0.9336              -44.53          8.886          48.96          47.27         -6.518         -4.247         -15.25          18.52          88.28          73.25          25.37
    0.9535              -44.57          8.979          46.57           48.4         -5.191         -5.662         -23.08           16.4           78.6          73.99          26.33
    0.9733              -44.61          9.087           43.8          49.72         -3.652         -7.303         -32.16          13.93          67.38          74.84          27.45
    0.9932              -44.65          9.204          40.81          51.15         -1.986         -9.079         -41.99          11.26          55.22          75.76          28.66
     1.013              -44.69          9.322          37.81          52.57        -0.3194         -10.86         -51.82          8.587          43.07          76.68          29.87
     1.033              -44.73           9.43          35.05          53.89          1.219          -12.5          -60.9           6.12          31.84          77.53          30.99
     1.053              -44.76          9.523          32.66          55.02          2.547         -13.91         -68.73          3.992          22.16          78.27          31.96
     1.073              -44.79            9.6           30.7          55.96          3.636         -15.07         -75.16          2.246          14.21          78.87          32.75
     1.093              -44.81          9.661          29.15           56.7          4.503          -16.0         -80.27         0.8567          7.893          79.35          33.38
     1.112              -44.83          9.708          27.93          57.28          5.181         -16.72         -84.27        -0.2307          2.945          79.72          33.87
     1.132              -44.84          9.746          26.98          57.73          5.709         -17.28         -87.39         -1.078        -0.9101          80.01          34.26
     1.152              -44.85          9.775          26.24          58.08          6.122         -17.72         -89.82          -1.74         -3.922          80.24          34.56
     1.172              -44.86          9.797          25.65          58.36          6.447         -18.07         -91.74         -2.261         -6.292          80.42          34.79
